<svg xmlns="http://www.w3.org/2000/svg" aria-roledescription="sequence" style="max-width:1250px;background-color:transparent;fill:#333;font-family:&quot;trebuchet ms&quot;,verdana,arial,sans-serif;font-size:16px" viewBox="-50 -10 1250 231"><rect width="250" height="65" x="900" y="145" fill="#eaeaea" stroke="#666" class="actor" rx="3" ry="3"/><text x="1025" y="177.5" alignment-baseline="central" class="actor" dominant-baseline="central" style="text-anchor:middle;font-size:16px;font-weight:400">
    <tspan x="1025" dy="0">Server</tspan>
  </text><rect width="250" height="65" x="600" y="145" fill="#eaeaea" stroke="#666" class="actor" rx="3" ry="3"/><text x="725" y="177.5" alignment-baseline="central" class="actor" dominant-baseline="central" style="text-anchor:middle;font-size:16px;font-weight:400">
    <tspan x="725" dy="0">Proxy</tspan>
  </text><rect width="250" height="65" x="300" y="145" fill="#eaeaea" stroke="#666" class="actor" rx="3" ry="3"/><text x="425" y="177.5" alignment-baseline="central" class="actor" dominant-baseline="central" style="text-anchor:middle;font-size:16px;font-weight:400">
    <tspan x="425" dy="0">Proxy</tspan>
  </text><rect width="250" height="65" y="145" fill="#eaeaea" stroke="#666" class="actor" rx="3" ry="3"/><text x="125" y="177.5" alignment-baseline="central" class="actor" dominant-baseline="central" style="text-anchor:middle;font-size:16px;font-weight:400">
    <tspan x="125" dy="0">Client</tspan>
  </text><path stroke="#999" stroke-width=".5" d="M1025 5v140" class="200"/><rect width="250" height="65" x="900" fill="#eaeaea" stroke="#666" class="actor" rx="3" ry="3"/><text x="1025" y="32.5" alignment-baseline="central" class="actor" dominant-baseline="central" style="text-anchor:middle;font-size:16px;font-weight:400">
      <tspan x="1025" dy="0">Server</tspan>
    </text><path stroke="#999" stroke-width=".5" d="M725 5v140" class="200"/><rect width="250" height="65" x="600" fill="#eaeaea" stroke="#666" class="actor" rx="3" ry="3"/><text x="725" y="32.5" alignment-baseline="central" class="actor" dominant-baseline="central" style="text-anchor:middle;font-size:16px;font-weight:400">
      <tspan x="725" dy="0">Proxy</tspan>
    </text><path stroke="#999" stroke-width=".5" d="M425 5v140" class="200"/><rect width="250" height="65" x="300" fill="#eaeaea" stroke="#666" class="actor" rx="3" ry="3"/><text x="425" y="32.5" alignment-baseline="central" class="actor" dominant-baseline="central" style="text-anchor:middle;font-size:16px;font-weight:400">
      <tspan x="425" dy="0">Proxy</tspan>
    </text><path stroke="#999" stroke-width=".5" d="M125 5v140" class="200"/><rect width="250" height="65" fill="#eaeaea" stroke="#666" class="actor" rx="3" ry="3"/><text x="125" y="32.5" alignment-baseline="central" class="actor" dominant-baseline="central" style="text-anchor:middle;font-size:16px;font-weight:400">
      <tspan x="125" dy="0">Client</tspan>
    </text><defs><marker id="a" markerHeight="12" markerUnits="userSpaceOnUse" markerWidth="12" orient="auto" refX="7.9" refY="5"><path d="m0 0 10 5-10 5z" style="fill:#333;stroke:#333"/></marker></defs><path stroke-width="2" marker-end="url(#a)" d="M126 75h295" class="messageLine0" style="fill:none"/><path stroke-width="2" marker-end="url(#a)" d="M426 85h295" class="messageLine0" style="fill:none"/><path stroke-width="2" marker-end="url(#a)" d="M726 95h295" class="messageLine0" style="fill:none"/><path stroke-width="2" marker-end="url(#a)" d="M1024 105H729" class="messageLine0" style="fill:none"/><path stroke-width="2" marker-end="url(#a)" d="M724 115H429" class="messageLine0" style="fill:none"/><path stroke-width="2" marker-end="url(#a)" d="M424 125H129" class="messageLine0" style="fill:none"/></svg>