<svg xmlns="http://www.w3.org/2000/svg" aria-roledescription="sequence" style="max-width:970px;background-color:transparent;fill:#333;font-family:&quot;trebuchet ms&quot;,verdana,arial,sans-serif;font-size:16px" viewBox="-210 -10 970 475"><path fill="rgba(0, 0, 255, .1)" d="M-160 75h870v294h-870z" class="rect"/><rect width="250" height="65" x="300" y="389" fill="#eaeaea" stroke="#666" class="actor" rx="3" ry="3"/><text x="425" y="421.5" alignment-baseline="central" class="actor" dominant-baseline="central" style="text-anchor:middle;font-size:16px;font-weight:400">
    <tspan x="425" dy="0">Server</tspan>
  </text><rect width="250" height="65" y="389" fill="#eaeaea" stroke="#666" class="actor" rx="3" ry="3"/><text x="125" y="421.5" alignment-baseline="central" class="actor" dominant-baseline="central" style="text-anchor:middle;font-size:16px;font-weight:400">
    <tspan x="125" dy="0">Client</tspan>
  </text><path stroke="#999" stroke-width=".5" d="M425 5v384" class="200"/><rect width="250" height="65" x="300" fill="#eaeaea" stroke="#666" class="actor" rx="3" ry="3"/><text x="425" y="32.5" alignment-baseline="central" class="actor" dominant-baseline="central" style="text-anchor:middle;font-size:16px;font-weight:400">
      <tspan x="425" dy="0">Server</tspan>
    </text><path stroke="#999" stroke-width=".5" d="M125 5v384" class="200"/><rect width="250" height="65" fill="#eaeaea" stroke="#666" class="actor" rx="3" ry="3"/><text x="125" y="32.5" alignment-baseline="central" class="actor" dominant-baseline="central" style="text-anchor:middle;font-size:16px;font-weight:400">
      <tspan x="125" dy="0">Client</tspan>
    </text><defs><marker id="a" markerHeight="12" markerUnits="userSpaceOnUse" markerWidth="12" orient="auto" refX="7.9" refY="5"><path d="m0 0 10 5-10 5z" style="fill:#333;stroke:#333"/></marker></defs><rect width="10" height="91" x="420" y="131" fill="#EDF2AE" stroke="#666" class="activation0" rx="0" ry="0"/><rect width="250" height="39" x="450" y="139" fill="#EDF2AE" stroke="#666" class="note" rx="0" ry="0"/><text x="460" y="144" alignment-baseline="middle" class="noteText" dominant-baseline="middle" dy="1em" style="font-size:16px;font-weight:400">
    <tspan x="460">Establish connection</tspan>
  </text><rect width="10" height="44" x="420" y="266" fill="#EDF2AE" stroke="#666" class="activation0" rx="0" ry="0"/><rect width="250" height="39" x="-150" y="320" fill="#EDF2AE" stroke="#666" class="note" rx="0" ry="0"/><text x="-140" y="325" alignment-baseline="middle" class="noteText" dominant-baseline="middle" dy="1em" style="font-size:16px;font-weight:400">
    <tspan x="-140">Close connection</tspan>
  </text><text x="274" y="100" alignment-baseline="middle" class="messageText" dominant-baseline="middle" dy="1em" style="font-size:16px;font-weight:400" text-anchor="middle">Request 1</text><path stroke-width="2" marker-end="url(#a)" d="M126 129h295" class="messageLine0" style="fill:none"/><text x="275" y="193" alignment-baseline="middle" class="messageText" dominant-baseline="middle" dy="1em" style="font-size:16px;font-weight:400" text-anchor="middle">Response 1</text><path stroke-width="2" marker-end="url(#a)" d="M420 222H129" class="messageLine0" style="fill:none"/><text x="274" y="237" alignment-baseline="middle" class="messageText" dominant-baseline="middle" dy="1em" style="font-size:16px;font-weight:400" text-anchor="middle">Request 2</text><path stroke-width="2" marker-end="url(#a)" d="M126 266h295" class="messageLine0" style="fill:none"/><text x="275" y="281" alignment-baseline="middle" class="messageText" dominant-baseline="middle" dy="1em" style="font-size:16px;font-weight:400" text-anchor="middle">Response 2</text><path stroke-width="2" marker-end="url(#a)" d="M420 310H129" class="messageLine0" style="fill:none"/></svg>