<svg xmlns="http://www.w3.org/2000/svg" aria-roledescription="sequence" style="max-width:970px;background-color:transparent;fill:#333;font-family:&quot;trebuchet ms&quot;,verdana,arial,sans-serif;font-size:16px" viewBox="-210 -10 970 603"><path fill="rgba(0, 0, 255, .1)" d="M-160 291h870v206h-870zm0-216h870v206h-870z" class="rect"/><rect width="250" height="65" x="300" y="517" fill="#eaeaea" stroke="#666" class="actor" rx="3" ry="3"/><text x="425" y="549.5" alignment-baseline="central" class="actor" dominant-baseline="central" font-size="16" font-weight="400" text-anchor="middle">
    <tspan x="425" dy="0">Server</tspan>
  </text><rect width="250" height="65" y="517" fill="#eaeaea" stroke="#666" class="actor" rx="3" ry="3"/><text x="125" y="549.5" alignment-baseline="central" class="actor" dominant-baseline="central" font-size="16" font-weight="400" text-anchor="middle">
    <tspan x="125" dy="0">Client</tspan>
  </text><path stroke="#999" stroke-width=".5" d="M425 5v512" class="200"/><rect width="250" height="65" x="300" fill="#eaeaea" stroke="#666" class="actor" rx="3" ry="3"/><text x="425" y="32.5" alignment-baseline="central" class="actor" dominant-baseline="central" font-size="16" font-weight="400" text-anchor="middle">
      <tspan x="425" dy="0">Server</tspan>
    </text><path stroke="#999" stroke-width=".5" d="M125 5v512" class="200"/><rect width="250" height="65" fill="#eaeaea" stroke="#666" class="actor" rx="3" ry="3"/><text x="125" y="32.5" alignment-baseline="central" class="actor" dominant-baseline="central" font-size="16" font-weight="400" text-anchor="middle">
      <tspan x="125" dy="0">Client</tspan>
    </text><defs><marker id="a" markerHeight="12" markerUnits="userSpaceOnUse" markerWidth="12" orient="auto" refX="7.9" refY="5"><path d="m0 0 10 5-10 5z" style="fill:#333;stroke:#333"/></marker></defs><rect width="10" height="91" x="420" y="131" fill="#EDF2AE" stroke="#666" class="activation0" rx="0" ry="0"/><rect width="250" height="39" x="450" y="139" fill="#EDF2AE" stroke="#666" class="note" rx="0" ry="0"/><text x="460" y="144" alignment-baseline="middle" class="noteText" dominant-baseline="middle" dy="1em" font-size="16" font-weight="400">
    <tspan x="460">Establish connection</tspan>
  </text><rect width="250" height="39" x="-150" y="232" fill="#EDF2AE" stroke="#666" class="note" rx="0" ry="0"/><text x="-140" y="237" alignment-baseline="middle" class="noteText" dominant-baseline="middle" dy="1em" font-size="16" font-weight="400">
    <tspan x="-140">Close connection</tspan>
  </text><rect width="10" height="91" x="420" y="347" fill="#EDF2AE" stroke="#666" class="activation0" rx="0" ry="0"/><rect width="250" height="39" x="450" y="355" fill="#EDF2AE" stroke="#666" class="note" rx="0" ry="0"/><text x="460" y="360" alignment-baseline="middle" class="noteText" dominant-baseline="middle" dy="1em" font-size="16" font-weight="400">
    <tspan x="460">Establish connection</tspan>
  </text><rect width="250" height="39" x="-150" y="448" fill="#EDF2AE" stroke="#666" class="note" rx="0" ry="0"/><text x="-140" y="453" alignment-baseline="middle" class="noteText" dominant-baseline="middle" dy="1em" font-size="16" font-weight="400">
    <tspan x="-140">Close connection</tspan>
  </text><text x="274" y="100" alignment-baseline="middle" class="messageText" dominant-baseline="middle" dy="1em" font-size="16" font-weight="400" text-anchor="middle">Request</text><path fill="none" stroke-width="2" marker-end="url(#a)" d="M126 129h295" class="messageLine0"/><text x="275" y="193" alignment-baseline="middle" class="messageText" dominant-baseline="middle" dy="1em" font-size="16" font-weight="400" text-anchor="middle">Response</text><path fill="none" stroke-width="2" marker-end="url(#a)" d="M420 222H129" class="messageLine0"/><text x="274" y="316" alignment-baseline="middle" class="messageText" dominant-baseline="middle" dy="1em" font-size="16" font-weight="400" text-anchor="middle">Request</text><path fill="none" stroke-width="2" marker-end="url(#a)" d="M126 345h295" class="messageLine0"/><text x="275" y="409" alignment-baseline="middle" class="messageText" dominant-baseline="middle" dy="1em" font-size="16" font-weight="400" text-anchor="middle">Response</text><path fill="none" stroke-width="2" marker-end="url(#a)" d="M420 438H129" class="messageLine0"/></svg>